<svg  fill="#ffa500" xmlns="http://www.w3.org/2000/svg" xmlns:v="https://vecta.io/nano" viewBox="0 0 1000 1000"><path d="M984.4 220.3c-8.4-13.9-22-23.7-39.1-29-9.2-2.9-22.2-3-30.8.4-4.9 2-8.6 4.8-12.4 7.8-2 2.1-4 4.1-6 6.1L883.4 218 750 349l-31.2 30.7c-5.5 5.5-14.6 13.7-24.2 14.7-.5-1.1-1.2-1.9-1.6-3.3-1.6-6.8 6.2-12.9 8.8-16.3l36.8-40.1L843 220.3l29.5-32.4c3.6-4.5 8.2-8.2 11.3-13.2 1.9-3 3.4-6.6 4.4-10.5 4.5-17.7-5.3-32.9-12.6-42-3.7-4.6-8.9-8.3-14.1-11.4-3.2-1.8-6.9-3.2-10.8-4.3-8.4-2.3-19.5-1.1-26.3 1.6-7 2.8-11.7 7.3-17.1 11.6l-5.7 5.7-15 14.6-131 128.6-21.8 21.5-6.3 6.4c-2.8 2.2-5.3 4.6-8.3 6.7-4 2.7-10.6 7.7-16.8 7.7-1.9-6.4 3.7-15.1 6.2-19l3.6-5.4 11-11.2 24-24.6 62-64 33.8-34.9 11.4-11.6 10.1-10.6c2.5-2.5 4.9-5.1 7.3-7.7l6.6-7c6.4-7.9 14.4-14.4 20.6-22.5 7.4-9.8 8.5-25.6 3.2-38.6-7.2-17.5-22.9-33.9-48-33.5-.8.1-1.6.1-2.5.2-1.8.3-3.5.6-5.2.8-5 1.3-9.7 2.9-13.7 5.2-9.4 5.5-16.8 13-25.2 19.6-13.1 10.4-24.8 22.5-37.8 33l-12.9 11.8-25.6 23.3-8 7.5c-3.5 3.4-7.1 6.7-10.7 10l-13.3 12.8-14.3 13.7-4.5 4.6-8.5 8.4c-2.2 1.8-4 4-6 5.9-2.3 2.4-4.6 4.7-7 7l-3.9 3.8-19.3 20.3-7.5 8.2c-6.4 7.9-13.5 15.1-19.7 23.2-3.8 5-7.6 10-11 15.4-4.3 7-8.1 15.1-11.5 22.8-4.2 9.5-8.9 18.6-11.8 29.9-1 3.8-1.1 7.9-1.8 12.2v6.2c.1 1.7.1 3.4.2 5.1l1.3 9.2c.9 4.6 1.5 8.9 3 12.8 5.8 14.9 14.1 25 23.3 36.4l10 10.3c1.2 1.1 2.3 2.3 3.5 3.4l-23.7 24.4c-1.1 1.1-2.2 2.2-3.4 3.3L174.4 122.5c-15.1-15.1-30.2-30.3-47.8-43-9.8-7-19.9-13.6-31.8-18.6-8.9-3.6-23.3-7.6-35.9-4.9-8.2 1.8-14.6 4.7-20.3 9-6.9 5.2-11.9 12.4-16 20.4-4.3 8.4-6.6 17.9-8.8 28.7l-.9 8.8c0 1.4-.1 2.9-.1 4.3-1 6-1 12.5-2 18.8l-.4 9.1-.4 11.1v12.2l.5 15.4.9 10.8c1.3 7.5 1.8 15.1 3.4 22 1.9 8.3 3.4 16.3 6.5 23.4 5.6 12.9 13.4 24.2 21.1 35.2 11.4 16.1 23.8 31 36 46.4L95 351c8.2 10.3 17.9 19.3 26.2 29.5l9.1 9.8 13.3 13.8 4.8 5c3.9 4.9 8.8 9.1 13.3 13.5 5.2 5.2 10.2 11.1 15.9 15.7l13.9 13.4 10.4 9.6c9.1 7.3 17.4 15.5 26.8 22.6 8.4 6.4 16.8 12.9 27.3 17.1 7.1 2.8 15.7 3.1 24.1 4.5l8.1.6 11.9.4H317l13.3-.6c1.5-.1 3.1-.1 4.6-.2l15.4-1.3c2-.2 3.9-.4 5.9-.5l22.4 24-199.7 184.7-95.6 89-26.5 25-4 4c-12.3 9.9-19.6 24.9-24 42.7-6.4 25.3-.7 54 9.6 70.4 2.4 4 5.3 8.3 8.9 11.2 2.3 1.8 4.3 3.9 6.8 5.6 9.9 7 21.9 11.9 35.4 15.3 3.6.9 7.2 1.3 11.1 2 6.8 1.3 19.1 2.2 26.8.9 5-.8 9.8-1.1 14.4-2.3 13.3-3.4 23.4-8.8 32.5-16.2 3-2.4 5.9-5.6 8.3-8.6l10.2-10.7 23.7-25 59.2-62.4 140.5-147.9 71.1-74.9 208.4 232.5 55.1 61.8 19.2 21.7 6.8 7.8c1.4 1.9 3 3.9 4.9 5.4 9.4 7.6 18.8 12.3 32.6 15.7 4.6 1.2 9.3 1.1 14.5 1.9 6.3 1 15.6.3 21.3-.7 3.9-.7 7.4-1 11-2 11.7-3.2 21.7-7.7 30.4-13.8 4.1-2.9 8.7-6.1 11.8-10 2.3-2.8 4.8-5.5 7-8.5 3.9-5.5 6.7-11.7 9.3-18.4 1.9-5 2.6-10.5 3.7-16.2 1.8-9.8.5-23.3-1.6-31.6-4.7-18.9-11.6-33.6-24.5-44l-9.5-9.2-18.6-18.3-288-279.5 31-36c1-.7 4.8 2.5 6.2 3.5 6 4.2 12.4 8.2 18.8 12 12.6 7.5 26.5 13 42.3 17.4 6.6 1.9 16 3.6 24.1 1.8 4.9-1.1 9.4-2.2 13.7-3.9 23.7-9.5 41.9-25.2 60.4-39.9l13.7-11.9 16.6-15.4 7.9-7.5c6.3-5 12.2-11.9 17.9-17.6 4.5-4.5 9.5-8.8 13.4-13.7l5-5.1 9.2-9.7 21-22.3 13.6-15 11.5-12.9c10.3-12.8 22.1-24.3 32.3-37.2l7-8 25.6-30.6c4.6-5.8 11.7-12.2 14.8-19.2 5.2-11.7 2.8-24.5-2.7-33.8zm-52.7 38.9l-30.3 35.6-29.6 33.7-10.7 11.9-12.7 13.9-18.7 19.8-8.2 8.5c-1.9 2.1-4 4.1-6 6.1L803.3 401c-4.6 4.6-9 9.8-14.2 13.9l-8.1 7.8c-4 3.2-7.3 7.3-11.3 10.5l-12.9 11.6c-12.9 10.3-25.1 21-39.5 30-4.9 3.1-9.9 6-15.9 8.1-1.8.6-4.5 1.9-7.1 1.4-26.8-5.1-48.5-20.7-66.5-34.9l-19.2-17.9-82.8 96-.2.2 291.8 283.1 40.5 39.5 9.1 8.8 8 7.8c1.8 2.4 3.2 5.5 4.3 8.4 6.7 17 4.5 40-7.4 49.6-10.9 8.8-29 15.9-49.2 11.2-3.9-.9-7.9-2.1-11.1-3.9-3.2-1.9-5.4-5-7.6-7.8l-12.2-13.8-41.4-46.6-191-213.1-51.8-57.8-14.5-16.2c-1-1.2-3.9-5.2-5.2-5.7L191.5 883.8l-30.5 32-6.8 7.1c-4.5 5.6-9.5 10.1-16.9 12.9-16.6 6.4-39.1 1.8-52.3-4-3.7-1.6-8.1-3.8-10.5-6.8-9-11.2-10-35-4-50.6 3.1-8.1 8.2-13.7 14.4-18.7l8.7-8.2 38.2-36 48.2-44.9 171.2-158.3 84.7-78.2v-.2l-63.6-68.1c-3.7 0-6.8.5-10.1 1.1-2.9.4-5.9.7-8.8 1l-25.7 2-8.2.3c-2.3.1-4.6.1-6.9.2h-12.2l-7.9-.2c-7.8-1.2-15.7-.7-22.5-2.9-2-.6-3.6-2-5.3-3-5.1-3.2-9.5-7-14.2-10.5-7.9-6.1-14.9-13.1-22.5-19.3l-9.4-8.6-10.9-10.5-12.1-11.9-10-10.2-7.3-7.3-19.2-20.4-7-7.4-20.8-23.1-19.7-22.9c-13.2-16.7-26.8-33-39.3-50.7-5.3-7.5-10.7-15.6-14.2-24.6-2.5-6.5-3.3-14-4.7-21.5-1.1-5.2-1.2-10.9-2-16.4l-.5-6.9-.3-10.7v-9.6l.4-11.2.3-6.2c.8-5.4.7-11.1 1.6-16.3.6-3.4.2-7.4.8-11 1.6-9.8 3.4-22 10.1-26.5 2.7-1.8 8-1.1 11.2-.2 8.7 2.6 15.7 7 22.5 11.5 16.6 11.1 30.7 25 44.5 38.9l31.4 31.3 314 310.8h.2l86.3-88.6-17.8-13.5c-9.3-7-19.1-15.6-26.3-24.7-5.2-6.5-10.8-12.5-14.1-20.9-1.6-4-1.7-8.9-2.5-13.8.1-1.9.1-3.9.2-5.9 1.4-8.7 4.2-14.5 7.2-21.2l6-12.4c2.4-5.3 5-10.7 8.1-15.2 6.1-8.6 13.1-16.1 19.6-24.1 6.2-7.7 13.8-14.2 20-21.9l6.7-6.9 8-8 7.8-7.9 8-7.9c1.4-1.5 2.9-3 4.4-4.5l13.7-13.2 16.3-15.7 12.4-11.7c3.2-2.9 6.3-5.9 9.4-8.8l29.4-26.7 10.7-9.8c11.3-9.1 21.4-19.5 32.7-28.5 6.3-5 11.9-11.2 19-15.4 1-.4 2.1-.7 3.1-1.1 4.4 0 8.7 5.7 9.3 9.4-3.2 4.6-8 8.1-11.5 12.4l-27.4 29c-2.2 2.3-4.4 4.5-6.7 6.8l-64.9 67.3-19.3 19.8-24.3 25-28.7 29.2c-8.4 10.5-15.4 22-19.2 37.1-2.4 9.4-1.4 21.8 1.8 29.3 2.8 6.6 7.4 12.6 12.8 16.7a42.44 42.44 0 0 0 13.4 6.9c21.6 6.6 44-7.7 55.8-16.4 6.7-5 12.3-11.2 18.2-17l19-18.6 10.5-10.5 92.4-90.9 37.4-36.5 10.3-10.1c1.4-1.4 3.1-3.8 5.2-4.3 3.6-.9 7.9 6.3 8.9 8.9l-39.1 43-99.5 109.1-25.8 28c-6 7.5-13.5 13.7-19.3 21.4-3.8 5.1-6.6 10.5-9.1 16.9-2.4 6.1-4.5 15.5-2.8 23.9.6 3.2 1.2 6.3 2.3 9 2.4 6.3 5.9 11.2 9.8 16.1 2.9 3.6 7.6 7.1 12.1 9 2.9 1.3 6 2.3 9.5 3.1 6.8 1.5 15.4.5 21.1-1.2 14.2-4.2 24.4-11.2 34.5-19.3l187.5-184.3c7.4 0 15.5 5.6 18.7 9.9l-17.1 20.5z"/></svg>