<svg xmlns="http://www.w3.org/2000/svg" version="1.0" width="512.000000pt" height="512.000000pt" viewBox="0 0 512.000000 512.000000" preserveAspectRatio="xMidYMid meet">
<metadata>
Created by potrace 1.16, written by Peter Selinger 2001-2019
</metadata>
<g transform="translate(0.000000,512.000000) scale(0.100000,-0.100000)" fill="#000000" stroke="none">
<path d="M2323 5105 c-36 -15 -189 -117 -278 -183 -274 -207 -697 -612 -922 -882 -869 -1047 -1089 -1993 -624 -2690 295 -442 783 -679 1315 -639 257 19 511 99 710 222 l39 24 1 189 c2 169 5 199 28 286 86 317 289 576 571 728 89 48 85 37 61 197 -18 123 -43 223 -126 503 -86 291 -107 398 -114 570 -8 186 9 289 72 442 25 60 42 113 39 117 -14 13 -132 1 -199 -20 -38 -13 -102 -44 -142 -71 -111 -74 -166 -141 -235 -287 -89 -187 -143 -291 -150 -288 -4 1 -55 58 -113 127 -117 138 -171 233 -208 365 -31 113 -31 358 0 490 45 191 100 331 255 648 85 174 86 181 20 152z m441 -2022 c11 -49 49 -191 86 -318 65 -223 114 -414 108 -420 -9 -9 -173 -34 -179 -27 -4 4 -14 41 -23 82 -9 41 -46 174 -81 295 -61 210 -119 435 -112 441 3 3 146 32 167 33 12 1 20 -22 34 -86z m-1102 -256 c83 -159 176 -304 268 -417 245 -301 319 -422 372 -606 20 -68 23 -102 23 -249 0 -180 -10 -245 -58 -378 -83 -229 -254 -388 -462 -432 -95 -20 -167 -19 -259 5 -106 27 -178 70 -261 156 -300 309 -366 867 -160 1356 48 114 138 261 287 471 71 100 137 194 146 210 9 15 20 27 23 27 4 0 41 -64 81 -143z"/>
<path d="M3800 1675 l0 -85 112 0 113 0 -498 -498 -497 -497 62 -63 63 -62 497 497 498 498 0 -113 0 -112 85 0 85 0 0 260 0 260 -260 0 -260 0 0 -85z"/>
<path d="M3218 1669 c-57 -9 -104 -36 -151 -88 -118 -131 -57 -358 112 -416 142 -48 296 31 337 173 56 190 -100 362 -298 331z m106 -194 c36 -33 36 -92 1 -125 -36 -33 -91 -31 -122 5 -72 83 40 195 121 120z"/>
<path d="M3884 954 c-55 -20 -120 -77 -145 -127 -29 -57 -36 -142 -15 -203 46 -141 207 -215 348 -161 60 23 133 102 149 160 47 175 -61 333 -236 343 -37 2 -76 -2 -101 -12z m151 -190 c75 -81 -37 -193 -120 -121 -36 31 -38 86 -5 122 33 35 92 35 125 -1z"/>
</g>
</svg>